<?xml version="1.0" encoding="utf-8"?>
<!-- Generator: Adobe Illustrator 27.1.0, SVG Export Plug-In . SVG Version: 6.00 Build 0)  -->
<svg version="1.1" id="Layer_1" xmlns="http://www.w3.org/2000/svg" xmlns:xlink="http://www.w3.org/1999/xlink" x="0px" y="0px"
	 viewBox="0 0 16.5 16.5" style="enable-background:new 0 0 16.5 16.5;" xml:space="preserve">
<style type="text/css">
	.st0{fill:black;}
</style>
<path class="st0" d="M15.17,6.92h-5.6l0-5.6c0-0.35-0.14-0.69-0.39-0.94C8.94,0.14,8.6,0,8.25,0C7.52,0,6.92,0.59,6.92,1.33v5.6
	l-5.6,0C0.59,6.92,0,7.52,0,8.25c0,0.72,0.61,1.32,1.33,1.33l5.6,0v5.6c0,0.35,0.14,0.69,0.39,0.94c0.25,0.25,0.58,0.39,0.94,0.39
	c0.73,0,1.33-0.59,1.33-1.33l0-5.6h5.6c0.73,0,1.33-0.59,1.33-1.33S15.91,6.92,15.17,6.92z"/>
</svg>
