<?xml version="1.0" encoding="utf-8"?>
<!-- Generator: Adobe Illustrator 27.8.1, SVG Export Plug-In . SVG Version: 6.00 Build 0)  -->
<svg version="1.1" id="Layer_1" xmlns="http://www.w3.org/2000/svg" xmlns:xlink="http://www.w3.org/1999/xlink" x="0px" y="0px"
	 viewBox="0 0 22 14.6" style="enable-background:new 0 0 22 14.6;" xml:space="preserve">
<style type="text/css">
	.icon-shown{fill:#FFFFFF;}
</style>
<g>
	<path class="icon-shown" d="M11,5.6c-2.2,0-2.2,3.3,0,3.3S13.2,5.6,11,5.6z"/>
	<path class="icon-shown" d="M21.5,5.8C18.8,2.1,15,0,11,0C7,0,3.2,2.1,0.5,5.8c-0.6,0.9-0.6,2,0,2.9C3.2,12.5,7,14.6,11,14.6
		c4,0,7.8-2.1,10.5-5.8C22.2,7.9,22.2,6.7,21.5,5.8z M11,11.6c-5.7,0-5.7-8.7,0-8.7C16.7,2.9,16.9,11.6,11,11.6z"/>
</g>
</svg>
