<?xml version="1.0" encoding="utf-8"?>
<!-- Generator: Adobe Illustrator 27.7.0, SVG Export Plug-In . SVG Version: 6.00 Build 0)  -->
<svg version="1.1" id="Layer_1" xmlns="http://www.w3.org/2000/svg" xmlns:xlink="http://www.w3.org/1999/xlink" x="0px" y="0px"
	 viewBox="0 0 26 22" style="enable-background:new 0 0 26 22;" xml:space="preserve">
<style type="text/css">
	.refresh{fill:#FFFFFF;}
</style>
<g>
	<path class="refresh" d="M7.7,12.5c0.4-0.4,0.1-1.1-0.5-1.1H5.6c0-0.2,0-0.3,0-0.5c0-4.1,3.3-7.4,7.4-7.4c2,0,3.8,0.8,5.1,2l2.3-2.7
		C18.4,1,15.8,0,13,0c-2.9,0-5.7,1.1-7.8,3.2C3.2,5.3,2,8.1,2,11c0,0.2,0,0.3,0,0.5H0.6c-0.5,0-0.8,0.6-0.5,1.1l3.1,3.6l0.7,0.8
		l2.4-2.7L7.7,12.5z"/>
	<path class="refresh" d="M25.8,10.4l-2.3-2.7l-1.4-1.7L20,8.5l-1.7,2c-0.4,0.4-0.1,1.1,0.5,1.1h1.6c-0.3,3.9-3.5,6.9-7.4,6.9
		c-1.7,0-3.3-0.6-4.5-1.6l-2.3,2.7C8.1,21.1,10.5,22,13,22c2.9,0,5.7-1.1,7.8-3.2c2-2,3.1-4.5,3.2-7.2h1.4
		C25.9,11.5,26.2,10.9,25.8,10.4L25.8,10.4z"/>
</g>
</svg>
