<?xml version="1.0" encoding="utf-8"?>
<!-- Generator: Adobe Illustrator 27.7.0, SVG Export Plug-In . SVG Version: 6.00 Build 0)  -->
<svg version="1.1" id="Layer_1" xmlns="http://www.w3.org/2000/svg" xmlns:xlink="http://www.w3.org/1999/xlink" x="0px" y="0px"
	 viewBox="0 0 12 16" style="enable-background:new 0 0 12 16;" xml:space="preserve">
<style type="text/css">
</style>
<path class="st0" d="M2.5,16h-1C0.7,16,0,15.3,0,14.5v-13C0,0.7,0.7,0,1.5,0h1C3.3,0,4,0.7,4,1.5v13C4,15.3,3.3,16,2.5,16z"/>
<path class="st0" d="M10.5,16h-1C8.7,16,8,15.3,8,14.5v-13C8,0.7,8.7,0,9.5,0h1C11.3,0,12,0.7,12,1.5v13C12,15.3,11.3,16,10.5,16z"
	/>
</svg>
