<?xml version="1.0" encoding="utf-8"?>
<!-- Generator: Adobe Illustrator 27.8.1, SVG Export Plug-In . SVG Version: 6.00 Build 0)  -->
<svg version="1.1" id="Layer_1" xmlns="http://www.w3.org/2000/svg" xmlns:xlink="http://www.w3.org/1999/xlink" x="0px" y="0px"
	 viewBox="0 0 32 28.2" style="enable-background:new 0 0 32 28.2;" xml:space="preserve">
<style type="text/css">
	.st0{fill:#FF9900;}
</style>
<path id="패스_383" class="st0" d="M31.7,25.3L17.7,1C17.2,0,16-0.3,15,0.3c-0.3,0.2-0.6,0.4-0.7,0.7l-14,24.3
	C-0.3,26.2,0,27.4,1,28c0.3,0.2,0.6,0.3,1,0.3h28c1.1,0,2-0.9,2-2C32,25.9,31.9,25.6,31.7,25.3 M18.1,7.7l-0.1,3.7l-0.6,7.8h-2.7
	l-0.6-7.8l-0.1-3.7L18.1,7.7z M16,25.8c-1.4,0-2.4-1.1-2.4-2.5c0,0,0-0.1,0-0.1c0-1.4,1-2.5,2.4-2.5s2.5,1,2.5,2.4c0,0,0,0.1,0,0.1
	c0.1,1.4-1,2.5-2.3,2.6C16.1,25.8,16,25.8,16,25.8"/>
</svg>
