<?xml version="1.0" encoding="utf-8"?>
<!-- Generator: Adobe Illustrator 27.8.1, SVG Export Plug-In . SVG Version: 6.00 Build 0)  -->
<svg version="1.1" id="Layer_1" xmlns="http://www.w3.org/2000/svg" xmlns:xlink="http://www.w3.org/1999/xlink" x="0px" y="0px"
	 viewBox="0 0 18 15.7" style="enable-background:new 0 0 18 15.7;" xml:space="preserve">
<style type="text/css">
	<!-- .st0{fill:#222222;} -->
</style>
<path d="M17.5,15.7c-0.3,0-0.5-0.2-0.5-0.4c-0.4-2.2-2.5-6.1-8-6.3v2.9c0,0.2-0.1,0.4-0.3,0.5c-0.2,0.1-0.4,0.1-0.5,0
	L0.2,6.6C0.1,6.5,0,6.3,0,6.2C0,6,0.1,5.8,0.2,5.7l7.9-5.6C8.3,0,8.5,0,8.7,0.1C8.9,0.1,9,0.3,9,0.5v2.9c3.4,0.3,9,2.8,9,11.8
	C18,15.5,17.8,15.7,17.5,15.7C17.5,15.7,17.5,15.7,17.5,15.7L17.5,15.7z"/>
</svg>
