<?xml version="1.0" encoding="utf-8"?>
<!-- Generator: Adobe Illustrator 27.7.0, SVG Export Plug-In . SVG Version: 6.00 Build 0)  -->
<svg version="1.1" id="Layer_1" xmlns="http://www.w3.org/2000/svg" xmlns:xlink="http://www.w3.org/1999/xlink" x="0px" y="0px"
	 viewBox="0 0 16 10.9" style="enable-background:new 0 0 16 10.9;" xml:space="preserve">
<style type="text/css">
	.remote-ir{fill:#FFFFFF;}
</style>
<g>
	<g id="XMLID_00000099654204328589557060000004389987247915787656_">
		<g>
			<path class="remote-ir" d="M10.4,9.3c0.3,0.4,0.2,1-0.2,1.4s-1,0.2-1.4-0.2c-0.2-0.3-0.5-0.4-0.8-0.4c-0.3,0-0.6,0.2-0.8,0.4
				c-0.3,0.4-0.9,0.5-1.3,0.2c-0.4-0.3-0.5-0.9-0.2-1.4C6.2,8.6,7.1,8.2,8,8.2C8.9,8.2,9.8,8.6,10.4,9.3z"/>
			<path class="remote-ir" d="M13,6.2c0.4,0.4,0.3,1,0,1.4c-0.4,0.4-1,0.4-1.4,0C10.7,6.6,9.4,6,8,6C6.6,6,5.3,6.6,4.4,7.6
				C4,7.9,3.4,8,3,7.6c-0.4-0.4-0.4-1,0-1.4c1.3-1.4,3.1-2.1,5-2.1C9.9,4.1,11.7,4.8,13,6.2z"/>
			<path class="remote-ir" d="M15.7,3.2c0.4,0.4,0.4,1,0,1.4c-0.4,0.4-1,0.4-1.4,0c-1.7-1.7-4-2.6-6.4-2.6c-2.4,0-4.7,0.9-6.4,2.6
				c-0.4,0.4-1,0.4-1.4,0c-0.4-0.4-0.4-1,0-1.4C2.4,1.1,5.1,0,8,0C10.9,0,13.6,1.1,15.7,3.2z"/>
		</g>
		<g>
		</g>
	</g>
</g>
</svg>
