<?xml version="1.0" encoding="utf-8"?>
<!-- Generator: Adobe Illustrator 27.7.0, SVG Export Plug-In . SVG Version: 6.00 Build 0)  -->
<svg version="1.1" id="Layer_1" xmlns="http://www.w3.org/2000/svg" xmlns:xlink="http://www.w3.org/1999/xlink" x="0px" y="0px"
	 viewBox="0 0 14 18" style="enable-background:new 0 0 14 18;" xml:space="preserve">
<style type="text/css">
	.remote-bluetooth{fill:#FFFFFF;}
</style>
<g>
	<polygon class="remote-bluetooth" points="7.8,7.2 9.2,5.7 7.8,4.3 	"/>
	<polygon class="remote-bluetooth" points="7.8,14.2 9.2,12.8 7.8,11.3 	"/>
	<path class="remote-bluetooth" d="M7.6,0H6.4C2.9,0,0,2.9,0,6.4v5.2C0,15.1,2.9,18,6.4,18h1.2c3.5,0,6.4-2.9,6.4-6.4V6.4C14,2.9,11.1,0,7.6,0z
		 M11,12.2c0.3,0.3,0.3,0.8,0,1.1l-3.4,3.5C7.5,17,7.2,17.1,7,17.1c-0.1,0-0.2,0-0.3-0.1c-0.3-0.1-0.5-0.4-0.5-0.8v-5l-2,2.1
		c-0.3,0.3-0.8,0.3-1.2,0c-0.3-0.3-0.3-0.8,0-1.2l2.9-3L3,6.3C2.7,6,2.7,5.4,3,5.1C3.2,5,3.4,4.9,3.6,4.9C3.8,4.9,4,5,4.2,5.1l2,2.1
		v-5c0-0.3,0.2-0.6,0.5-0.8C7,1.3,7.4,1.4,7.6,1.7L11,5.2c0.3,0.3,0.3,0.8,0,1.1L8.2,9.3L11,12.2z"/>
</g>
</svg>
