<?xml version="1.0" encoding="utf-8"?>
<!-- Generator: Adobe Illustrator 27.8.1, SVG Export Plug-In . SVG Version: 6.00 Build 0)  -->
<svg version="1.1" id="Layer_1" xmlns="http://www.w3.org/2000/svg" xmlns:xlink="http://www.w3.org/1999/xlink" x="0px" y="0px"
	 viewBox="0 0 18 16.3" style="enable-background:new 0 0 18 16.3;" xml:space="preserve">
<style type="text/css">
	.icon_analysis{fill:#222222;}
</style>
<path class="icon_analysis" d="M7.2,16.3H5.8c-0.4,0-0.8-0.4-0.8-0.8V7.8C5,7.4,5.4,7,5.8,7h1.4C7.6,7,8,7.4,8,7.8v7.7
	C8,15.9,7.6,16.3,7.2,16.3z"/>
<path class="icon_analysis" d="M2.2,16.3H0.8c-0.4,0-0.8-0.4-0.8-0.8l0-4.3c0-0.4,0.4-0.8,0.8-0.8h1.4c0.4,0,0.8,0.4,0.8,0.8v4.3
	C3,15.9,2.6,16.3,2.2,16.3z"/>
<path class="icon_analysis" d="M12.2,16.3h-1.4c-0.4,0-0.8-0.4-0.8-0.8V9.3c0-0.4,0.4-0.8,0.8-0.8h1.4c0.4,0,0.8,0.4,0.8,0.8v6.1
	C13,15.9,12.6,16.3,12.2,16.3z"/>
<path class="icon_analysis" d="M17.2,16.3h-1.4c-0.4,0-0.8-0.4-0.8-0.8V7.8C15,7.4,15.4,7,15.8,7h1.4C17.6,7,18,7.4,18,7.8v7.7
	C18,15.9,17.6,16.3,17.2,16.3z"/>
<g>
	<polygon class="icon_analysis" points="1.6,8 0,6 6.8,0.6 11.5,4 16.4,0 18,1.9 11.5,7.2 6.9,3.7 	"/>
</g>
</svg>
