<?xml version="1.0" encoding="utf-8"?>
<!-- Generator: Adobe Illustrator 27.8.1, SVG Export Plug-In . SVG Version: 6.00 Build 0)  -->
<svg version="1.1" id="Layer_1" xmlns="http://www.w3.org/2000/svg" xmlns:xlink="http://www.w3.org/1999/xlink" x="0px" y="0px"
	 viewBox="0 0 22 16.6" style="enable-background:new 0 0 22 16.6;" xml:space="preserve">
<style type="text/css">
	.icon-hidden{fill:#8F949E;}
</style>
<g>
	<path class="icon-hidden" d="M11,12.6c-2.7,0-4.1-1.9-4.3-3.9L2,5C1.5,5.6,0.9,6.2,0.5,6.8c-0.6,0.9-0.6,2,0,2.9C3.2,13.4,7,15.6,11,15.6
		c1.3,0,2.6-0.2,3.8-0.7l-3-2.3C11.5,12.6,11.3,12.6,11,12.6z"/>
	<path class="icon-hidden" d="M21.5,9.7c0.6-0.9,0.6-2,0-2.9C18.8,3.1,15,1,11,1C9,1,7.1,1.5,5.3,2.5L2,0L0.8,1.6l2.9,2.3l3.3,2.6v0l3.4,2.6
		l1,0.8l0,0l2.3,1.8l0,0l3,2.3l0,0l3.4,2.6l1.2-1.6l-2.9-2.2C19.7,11.9,20.7,10.9,21.5,9.7z M12.6,8.2c0-0.8-0.6-1.6-1.6-1.6
		c-0.1,0-0.2,0-0.3,0L8.3,4.8C9,4.3,9.9,3.9,11,3.9c3.6,0,5,3.5,4,6.1L12.6,8.2z"/>
</g>
</svg>
