<svg xmlns="http://www.w3.org/2000/svg" version="1.1" xmlns:xlink="http://www.w3.org/1999/xlink" xmlns:svgjs="http://svgjs.com/svgjs" width="512" height="512" x="0" y="0" viewBox="0 0 512 512" style="enable-background:new 0 0 512 512" xml:space="preserve" class="">
    <g transform="matrix(-1,0,0,1,511.999953124905,0)">
        <path d="M255.999 0c-12.753 0-23.129 10.376-23.129 23.131v94.12c0 12.755 10.376 23.131 23.129 23.131 12.755 0 23.131-10.376 23.131-23.131v-94.12C279.13 10.376 268.754 0 255.999 0z" data-original="#000000"></path>
        <path d="M255.999 371.618c-12.753 0-23.129 10.376-23.129 23.131v94.12c0 12.755 10.376 23.131 23.129 23.131 12.755 0 23.131-10.376 23.131-23.131v-94.12c0-12.755-10.376-23.131-23.131-23.131z" opacity=".3" data-original="#000000"></path>
        <path d="M157.889 330.98a22.976 22.976 0 0 0-16.354 6.778l-66.556 66.55c-9.014 9.018-9.014 23.694.007 32.719a22.99 22.99 0 0 0 16.349 6.768c6.174 0 11.979-2.403 16.356-6.775l66.556-66.554c4.366-4.372 6.773-10.177 6.773-16.356s-2.407-11.988-6.773-16.352c-4.37-4.368-10.179-6.778-16.358-6.778z" opacity=".15" data-original="#000000"></path>
        <path d="M354.11 186.43a22.971 22.971 0 0 0 16.356-6.778l66.556-66.55c9.014-9.018 9.014-23.694-.009-32.719-9.012-9-23.682-9.007-32.703.007l-66.556 66.554c-4.368 4.372-6.773 10.177-6.773 16.356s2.407 11.988 6.773 16.352a22.972 22.972 0 0 0 16.356 6.778z" opacity=".85" data-original="#000000"></path>
        <path d="M370.467 337.758c-4.37-4.368-10.178-6.778-16.358-6.778s-11.988 2.41-16.352 6.775c-4.37 4.368-6.777 10.177-6.777 16.356s2.405 11.984 6.775 16.356l66.559 66.561a22.99 22.99 0 0 0 16.349 6.768c6.174 0 11.979-2.403 16.358-6.775 9.014-9.018 9.014-23.694-.002-32.712z" opacity=".45" data-original="#000000"></path>
        <path d="M140.381 256c0-12.755-10.376-23.131-23.131-23.131H23.128C10.375 232.869-.001 243.245-.001 256s10.376 23.131 23.129 23.131h94.122c12.755 0 23.131-10.376 23.131-23.131z" opacity=".05" data-original="#000000"></path>
        <path d="M488.87 232.869h-94.122c-12.753 0-23.129 10.376-23.129 23.131s10.376 23.131 23.129 23.131h94.122c12.755 0 23.131-10.376 23.131-23.131s-10.376-23.131-23.131-23.131z" opacity=".6" data-original="#000000"></path>
    </g>
</svg>