<svg xmlns="http://www.w3.org/2000/svg" width="20.025" height="21.001" viewBox="0 0 20.025 21.001">
  <path id="합치기_10" data-name="합치기 10" d="M4625.287,1982.064a2.975,2.975,0,0,1-2.927-2.79l-.843-12.821h-1.264a.731.731,0,1,1,0-1.462h5.121v-1.024a1.955,1.955,0,0,1,1.9-1.9h3.512a1.953,1.953,0,0,1,1.9,1.951v.977h5.121a.731.731,0,1,1,0,1.462h-1.261l-.807,12.821a2.976,2.976,0,0,1-2.966,2.79Zm-1.512-2.878a1.513,1.513,0,0,0,1.512,1.414h7.492a1.522,1.522,0,0,0,1.512-1.414l.791-12.683-12.058-.05Zm3.063-15.172v.977h4.391v-.977a.439.439,0,0,0-.439-.439h-3.512A.44.44,0,0,0,4626.837,1964.015Zm4.391,13.415v-7.805a.732.732,0,0,1,1.463,0v7.805a.732.732,0,1,1-1.463,0Zm-2.926,0v-7.805a.731.731,0,1,1,1.462,0v7.805a.731.731,0,1,1-1.462,0Zm-2.928,0v-7.805a.732.732,0,0,1,1.463,0v7.805a.732.732,0,1,1-1.463,0Z" transform="translate(-4619.021 -1961.563)" stroke="rgba(0,0,0,0)" stroke-miterlimit="10" stroke-width="1"/>
</svg>
